<svg xmlns="http://www.w3.org/2000/svg" viewBox="0 0 309 315">
  <rect width="309" height="315" rx="60" fill="#ef4444"/>
  <path fill="white" d="M267.074 293.931L266.955 0L231.402 15.9321L45.0407 294.83L9.86791 299.653L0 314.989H98.1906L109.035 299.653L72.3429 293.963L109.535 234.191L171.521 206.478C177.611 203.757 184.212 202.348 190.877 202.348H221.339L221.306 212.98V213.024L221.089 293.974L191.843 298.266L180.705 315H296.993L308.25 298.212M171.293 187.977L125.145 209.176L221.86 60L221.881 86.3042L221.382 158.996L221.339 183.685L190.063 183.652C183.202 183.652 177.514 185.116 171.293 187.977Z"/>
</svg>
